{"title":"Fantastic Four - Rise of the Silver Surfer-2007-DvDRip XviD-IARG","uid":6602838,"size":1060084785,"categoryP":"video","categoryS":"movies","magnet":"?xt=urn:btih:2370261fa51bfc2ec7d0023a0515945a3537e84f&amp;dn=Fantastic+Four+-+Rise+of+the+Silver+Surfer-2007-DvDRip+XviD-IARG&amp;tr=udp%3A%2F%2Ftracker.openbittorrent.com%3A80&amp;tr=udp%3A%2F%2Fopen.demonii.com%3A1337&amp;tr=udp%3A%2F%2Ftracker.coppersurfer.tk%3A6969&amp;tr=udp%3A%2F%2Fexodus.desync.com%3A6969","seeders":0,"leechers":1,"uploader":"scoobey","files":-1,"time":1313279148,"description":" &lt;a href=&quot;http://i1228.photobucket.com/albums/ee447/austintxut1/FantasticFour-RiseoftheSilverSurfer2007DvDRipXviD-IARGavi_thumbs_20110813_165114.jpg&quot; rel=&quot;nofollow&quot; target=&quot;_NEW&quot;&gt;http://i1228.photobucket.com/albums/ee447/austintxut1/FantasticFour-RiseoftheSilverSurfer2007DvDRipXviD-IARGavi_thumbs_20110813_165114.jpg&lt;/a&gt;\n\n &lt;a href=&quot;\nhttp://i1228.photobucket.com/albums/ee447/austintxut1/fant4.png&quot; rel=&quot;nofollow&quot; target=&quot;_NEW&quot;&gt;\nhttp://i1228.photobucket.com/albums/ee447/austintxut1/fant4.png&lt;/a&gt;\n\nFantastic Four - Rise of the Silver Surfer (2007) DvDRip XviD-IARG.avi\n\nFormat                           : AVI-Xvid\nFormat/Info                      : Audio Video Interleave\nFile size                        : 991 MiB\nDuration                         : 1h 31mn\nOverall bit rate                 : 1 510 Kbps\n\n\nVideo\nID                               : 0\nFormat                           : MPEG-4 Visual\nFormat profile                   : Advanced Simple@L5\nFormat settings, BVOP            : 2\nFormat settings, QPel            : No\nFormat settings, GMC             : No warppoints\nFormat settings, Matrix          : Default (MPEG)\nCodec ID                         : XVID\nCodec ID/Hint                    : XviD\nDuration                         : 1h 31mn\nBit rate                         : 1 056 Kbps\nWidth                            : 720 pixels\nHeight                           : 480 pixels\nDisplay aspect ratio             : 4:3\nFrame rate                       : 29.970 fps\nStandard                         : NTSC\nColor space                      : YUV\nChroma subsampling               : 4:2:0\nBit depth                        : 8 bits\nScan type                        : Progressive\nCompression mode                 : Lossy\nBits/(Pixel*Frame)               : 0.102\nStream size                      : 693 MiB (70%)\nWriting library                  : XviD 1.2.1 (UTC 2008-12-04)\n\nAudio\nID                               : 1\nFormat                           : AC-3\nFormat/Info                      : Audio Coding 3\nMode extension                   : CM (complete main)\nCodec ID                         : 2000\nDuration                         : 1h 31mn\nBit rate mode                    : Constant\nBit rate                         : 448 Kbps\nChannel(s)                       : 6 channels\nChannel positions                : Front: L C R, Side: L R, LFE\nSampling rate                    : 48.0 KHz\nBit depth                        : 16 bits\nCompression mode                 : Lossy\nDelay relative to video          : 33ms\nStream size                      : 294 MiB (30%)\nAlignment                        : Split accross interleaves\nInterleave, duration             : 500 ms (14.98 video frames)\nInterleave, preload duration     : 500 ms\n &lt;a href=&quot;\nhttp://img84.imageshack.us/img84/6611/newrough.png&quot; rel=&quot;nofollow&quot; target=&quot;_NEW&quot;&gt;\nhttp://img84.imageshack.us/img84/6611/newrough.png&lt;/a&gt;\n\n\n","torrent":{"xt":"urn:btih:2370261fa51bfc2ec7d0023a0515945a3537e84f","amp;dn":"Fantastic+Four+-+Rise+of+the+Silver+Surfer-2007-DvDRip+XviD-IARG","amp;tr":["udp%3A%2F%2Ftracker.openbittorrent.com%3A80","udp%3A%2F%2Fopen.demonii.com%3A1337","udp%3A%2F%2Ftracker.coppersurfer.tk%3A6969","udp%3A%2F%2Fexodus.desync.com%3A6969"],"infoHash":"2370261fa51bfc2ec7d0023a0515945a3537e84f","infoHashBuffer":{"type":"Buffer","data":[35,112,38,31,165,27,252,46,199,208,2,58,5,21,148,90,53,55,232,79]},"announce":[],"urlList":[]}}